# xmcd CD database file
#
# Track frame offsets:
#	151
#	14685
#	25183
#	36024
#	53250
#	84214
#	99197
#	113810
#	128438
#	145194
#	159950
#
# Disc length: 2315 seconds
#
# Revision: 1
# Processed by: cddbd v1.5.2PL0 Copyright (c) Steve Scherf et al.
# Submitted via: CDex 1.70beta2
#
DISCID=7109090b
DTITLE=Canned Heat - Canned Heat
DYEAR=1967
DGENRE=Blues
TTITLE0=Rollin' and Tumblin'
TTITLE1=Bullfrog Blues
TTITLE2=Evil is Going On
TTITLE3=Going Down Slow
TTITLE4=Catfish Blues
TTITLE5=Dust My Broom
TTITLE6=Help Me
TTITLE7=Big Road Blues
TTITLE8=Story Of My Life
TTITLE9=The Road Song
TTITLE10=Rich Woman
EXTD=YEAR: 1967
EXTT0=
EXTT1=
EXTT2=
EXTT3=
EXTT4=
EXTT5=
EXTT6=
EXTT7=
EXTT8=
EXTT9=
EXTT10=
PLAYORDER=
